<svg xmlns="http://www.w3.org/2000/svg" width="18.676" height="17" viewBox="0 0 18.676 17">
    <defs>
        <style>
            .cls-1{fill:#fff}
        </style>
    </defs>
    <g id="noun_Shopping_Cart_1861901" transform="translate(-2 -4)">
        <path id="Path_627" d="M20.372 6.6a1.489 1.489 0 0 0-1.2-.6H6.39l-.027-.106A2.5 2.5 0 0 0 3.938 4H2.5a.5.5 0 0 0 0 1h1.438a1.5 1.5 0 0 1 1.456 1.136l2.242 8.971A2.5 2.5 0 0 0 10.062 17H17.5a.5.5 0 0 0 0-1h-7.438a1.5 1.5 0 0 1-1.456-1.136L8.39 14h8.6a2.512 2.512 0 0 0 2.4-1.812l1.221-4.275a1.489 1.489 0 0 0-.239-1.313z" class="cls-1"/>
        <circle id="Ellipse_397" cx="1.5" cy="1.5" r="1.5" class="cls-1" transform="translate(16 18)"/>
        <circle id="Ellipse_398" cx="1.5" cy="1.5" r="1.5" class="cls-1" transform="translate(7 18)"/>
    </g>
</svg>
