<svg xmlns="http://www.w3.org/2000/svg" width="17.188" height="20.313" viewBox="0 0 17.188 20.313">
    <path d="M12.549 5.882a7.059 7.059 0 0 1 1.168.219 4.976 4.976 0 0 1 3.793 4.875v6.231l.455.457.38.382H6.655l.38-.382.455-.457v-6.23A4.976 4.976 0 0 1 11.284 6.1a8.644 8.644 0 0 1 1.168-.219m.048-3.537a1.493 1.493 0 0 0-1.517 1.523v.711a6.583 6.583 0 0 0-5.055 6.4v5.586l-2.022 2.03v1.016h17.188v-1.016l-2.022-2.031v-5.586a6.583 6.583 0 0 0-5.055-6.4v-.71A1.493 1.493 0 0 0 12.5 2.344zm2.022 18.281h-4.044a2.022 2.022 0 1 0 4.044 0z" transform="translate(-3.906 -2.344)"/>
</svg>
