<svg xmlns="http://www.w3.org/2000/svg" width="13.759" height="16.261" viewBox="0 0 13.759 16.261">
    <path fill="#fff" d="M6.517 8.134a2.728 2.728 0 0 1-.072-1.49c.302 0 .273 1.172.072 1.49zm-.061 1.5a13.907 13.907 0 0 1-1.018 1.991 14.36 14.36 0 0 1 2.254-.7 4.292 4.292 0 0 1-1.235-1.292zM3.085 13.6c0 .025.473-.172 1.25-1.277a4.6 4.6 0 0 0-1.25 1.277zm5.8-8.515h4.873V15.5a.814.814 0 0 1-.86.762H.86A.814.814 0 0 1 0 15.5V.762A.814.814 0 0 1 .86 0h7.166v4.319a.818.818 0 0 0 .86.763zM8.6 10.538a3.291 3.291 0 0 1-1.53-1.709 4.075 4.075 0 0 0 .221-2.039.93.93 0 0 0-1.713-.216 4.715 4.715 0 0 0 .29 2.446 28.464 28.464 0 0 1-1.462 2.725h-.007c-.971.441-2.637 1.413-1.953 2.16a1.181 1.181 0 0 0 .77.318c.641 0 1.279-.572 2.189-1.963a22.452 22.452 0 0 1 2.831-.737 5.952 5.952 0 0 0 2.293.619.816.816 0 0 0 .706-1.378c-.5-.432-1.946-.308-2.637-.229zm4.909-7.2L10 .222A.919.919 0 0 0 9.387 0h-.215v4.065h4.586v-.193a.719.719 0 0 0-.25-.537zm-2.655 8.108c.147-.086-.09-.378-1.534-.286 1.329.499 1.533.283 1.533.283z"/>
</svg>
