<svg xmlns="http://www.w3.org/2000/svg" width="17" height="17" viewBox="0 0 17 17">
    <path d="M18.1 11a2.187 2.187 0 0 1 1.4-2.04 8.668 8.668 0 0 0-1.049-2.53 2.217 2.217 0 0 1-.89.19 2.182 2.182 0 0 1-2-3.072 8.646 8.646 0 0 0-2.52-1.048 2.186 2.186 0 0 1-4.082 0 8.672 8.672 0 0 0-2.528 1.049 2.182 2.182 0 0 1-2 3.072 2.145 2.145 0 0 1-.89-.19A8.859 8.859 0 0 0 2.5 8.962a2.186 2.186 0 0 1 0 4.081 8.668 8.668 0 0 0 1.054 2.527 2.183 2.183 0 0 1 2.882 2.881A8.723 8.723 0 0 0 8.964 19.5a2.182 2.182 0 0 1 4.073 0 8.672 8.672 0 0 0 2.528-1.049 2.186 2.186 0 0 1 2.882-2.881 8.718 8.718 0 0 0 1.053-2.527A2.2 2.2 0 0 1 18.1 11zm-7.06 3.534a3.541 3.541 0 1 1 3.542-3.541 3.54 3.54 0 0 1-3.542 3.541z" transform="translate(-2.5 -2.5)"/>
</svg>
